<mxfile host="app.diagrams.net" modified="2022-06-08T08:39:03.475Z" agent="5.0 (X11)" etag="99E9z32ZYMGJFNCCHpC5" version="19.0.2" type="github">
  <diagram id="t-oJXe_NNOPs2yRI83mc" name="Page-1">
    <mxGraphModel dx="1422" dy="820" grid="1" gridSize="10" guides="1" tooltips="1" connect="1" arrows="1" fold="1" page="1" pageScale="1" pageWidth="827" pageHeight="1169" math="0" shadow="0">
      <root>
        <mxCell id="0" />
        <mxCell id="1" parent="0" />
        <mxCell id="vTsSiwtrTpE9aTX-kytd-1" value="Recap Memo&lt;br&gt; Machine Learning" style="rounded=0;whiteSpace=wrap;html=1;fillColor=#f5f5f5;strokeColor=#666666;fontColor=#333333;" vertex="1" parent="1">
          <mxGeometry x="105" y="40" width="640" height="60" as="geometry" />
        </mxCell>
        <mxCell id="vTsSiwtrTpE9aTX-kytd-5" value="" style="edgeStyle=orthogonalEdgeStyle;rounded=0;orthogonalLoop=1;jettySize=auto;html=1;" edge="1" parent="1" source="vTsSiwtrTpE9aTX-kytd-3" target="vTsSiwtrTpE9aTX-kytd-4">
          <mxGeometry relative="1" as="geometry" />
        </mxCell>
        <mxCell id="vTsSiwtrTpE9aTX-kytd-3" value="Step 1 " style="rounded=0;whiteSpace=wrap;html=1;fillColor=#f8cecc;strokeColor=#b85450;" vertex="1" parent="1">
          <mxGeometry y="150" width="120" height="60" as="geometry" />
        </mxCell>
        <mxCell id="vTsSiwtrTpE9aTX-kytd-7" value="" style="edgeStyle=orthogonalEdgeStyle;rounded=0;orthogonalLoop=1;jettySize=auto;html=1;" edge="1" parent="1" source="vTsSiwtrTpE9aTX-kytd-4" target="vTsSiwtrTpE9aTX-kytd-6">
          <mxGeometry relative="1" as="geometry" />
        </mxCell>
        <mxCell id="vTsSiwtrTpE9aTX-kytd-8" style="edgeStyle=orthogonalEdgeStyle;rounded=0;orthogonalLoop=1;jettySize=auto;html=1;exitX=0.25;exitY=1;exitDx=0;exitDy=0;entryX=0.5;entryY=0;entryDx=0;entryDy=0;" edge="1" parent="1" source="vTsSiwtrTpE9aTX-kytd-4" target="vTsSiwtrTpE9aTX-kytd-9">
          <mxGeometry relative="1" as="geometry">
            <mxPoint x="260" y="290" as="targetPoint" />
          </mxGeometry>
        </mxCell>
        <mxCell id="vTsSiwtrTpE9aTX-kytd-11" style="edgeStyle=orthogonalEdgeStyle;rounded=0;orthogonalLoop=1;jettySize=auto;html=1;exitX=0.75;exitY=1;exitDx=0;exitDy=0;entryX=0.5;entryY=0;entryDx=0;entryDy=0;" edge="1" parent="1" source="vTsSiwtrTpE9aTX-kytd-4" target="vTsSiwtrTpE9aTX-kytd-10">
          <mxGeometry relative="1" as="geometry" />
        </mxCell>
        <mxCell id="vTsSiwtrTpE9aTX-kytd-4" value="Problem to analyse" style="rounded=0;whiteSpace=wrap;html=1;fillColor=#f5f5f5;fontColor=#333333;strokeColor=#666666;" vertex="1" parent="1">
          <mxGeometry x="200" y="150" width="450" height="60" as="geometry" />
        </mxCell>
        <mxCell id="vTsSiwtrTpE9aTX-kytd-6" value="Regression " style="whiteSpace=wrap;html=1;rounded=0;fillColor=#cce5ff;strokeColor=#36393d;" vertex="1" parent="1">
          <mxGeometry x="365" y="290" width="120" height="60" as="geometry" />
        </mxCell>
        <mxCell id="vTsSiwtrTpE9aTX-kytd-9" value="Classification" style="whiteSpace=wrap;html=1;rounded=0;fillColor=#cce5ff;strokeColor=#36393d;" vertex="1" parent="1">
          <mxGeometry x="200" y="290" width="120" height="60" as="geometry" />
        </mxCell>
        <mxCell id="vTsSiwtrTpE9aTX-kytd-10" value="Clustering" style="whiteSpace=wrap;html=1;rounded=0;fillColor=#cce5ff;strokeColor=#36393d;" vertex="1" parent="1">
          <mxGeometry x="530" y="290" width="120" height="60" as="geometry" />
        </mxCell>
      </root>
    </mxGraphModel>
  </diagram>
</mxfile>
